<?xml version="1.0" encoding="UTF-8"?>
<!DOCTYPE svg PUBLIC "-//W3C//DTD SVG 1.1//EN" "http://www.w3.org/Graphics/SVG/1.1/DTD/svg11.dtd">
<svg xmlns="http://www.w3.org/2000/svg" xmlns:xlink="http://www.w3.org/1999/xlink" version="1.1" width="135px" height="129px" viewBox="-0.5 -0.5 135 129"><defs><style type="text/css">@import url(https://fonts.googleapis.com/css?family=MuseoModerno);&#xa;</style></defs><g><path d="M 14.13 82.1 L 2.13 73.1 L 28.34 38.16 L 40.58 68.76 L 67.93 16.52 L 86.54 75.66 L 104.01 23.24 L 91.68 19.13 L 118.72 2.85 L 130.58 32.1 L 118.24 27.99 L 86.13 124.34 L 64.47 55.48 L 38.75 104.58 L 24.33 68.51 Z" fill="none" stroke="none" pointer-events="all"/><path d="M 104.01 23.24 L 91.68 19.13 L 118.72 2.85 L 130.58 32.1 L 118.24 27.99" fill="none" stroke="none" pointer-events="all"/><path d="M 12.91 82.73 L 2.62 71.8 L 27.1 37.06 L 38.91 67.91 L 69.02 15.31 L 88.46 76.39 L 104.6 24.81 L 93.29 20.84 L 116.86 2.32 L 130.41 33.36 L 118.95 27.63 L 85.19 123.85 L 65.77 55.66 L 40.6 106.11 L 23.32 66.63 L 12.93 83.42" fill="rgb(255, 255, 255)" stroke="none" pointer-events="all"/></g></svg>